<svg xmlns="http://www.w3.org/2000/svg" xml:space="preserve" width="2000" height="137" data-id="lg_ql6ynvwdVgyC1M84nG" data-version="1" viewBox="0 0 2000 137"><g data-padding="20"><g transform="translate(10 2.425)scale(.9646)"><rect width="364.868" height="93.79" x="492.753" y="-47.356" fill="none" rx="0" ry="0" transform="matrix(1.1 0 0 1.1 201.592 52.224)"/><path fill="#001f3f" d="M769.497 79.855h-6.391L746.76 31.917l9.493-.088 11.693 35.882-2.101-.187 12.694-28.028h5.654l12.782 28.127-2.464.176 11.78-35.882h9.494l-16.16 47.938h-6.478l-13.332-30.492 2.1.275Zm79.079.913q-7.403 0-13.101-3.146-5.71-3.157-8.954-8.635-3.234-5.478-3.234-12.595 0-5.665 1.826-10.318t5.06-8.085q3.245-3.421 7.766-5.291t9.812-1.87q4.653 0 8.668 1.782 4.026 1.77 6.985 4.884 2.97 3.102 4.565 7.348 1.606 4.246 1.507 9.262l-.088 4.015h-39.171l-2.101-7.48h33.143l-1.364 1.55v-2.188q-.275-3.014-2.013-5.39-1.727-2.376-4.378-3.74-2.651-1.375-5.753-1.375-4.928 0-8.305 1.87-3.377 1.88-5.115 5.478-1.738 3.608-1.738 8.91 0 5.016 2.1 8.712t5.94 5.709q3.829 2.013 8.856 2.013 3.553 0 6.61-1.188t6.623-4.29l4.752 6.666q-2.19 2.189-5.346 3.828-3.146 1.65-6.666 2.607-3.51.957-6.886.957m58.146 0q-3.102 0-6.16-1.001-3.07-1.012-5.577-2.695-2.508-1.694-4.202-3.751-1.683-2.046-2.233-4.147l2.376-1.276V79.58h-9.405V12.293h9.405v30.58l-1.463-.814q.462-2.101 2.013-4.07 1.55-1.958 3.97-3.553 2.42-1.606 5.248-2.563t5.753-.957q6.479 0 11.506 3.2 5.016 3.19 7.942 8.812 2.915 5.61 2.915 12.826 0 7.205-2.871 12.87-2.882 5.665-7.898 8.899-5.027 3.245-11.32 3.245m-1.55-8.58q4.19 0 7.48-2.145t5.203-5.852q1.925-3.696 1.925-8.437 0-4.664-1.87-8.36-1.881-3.696-5.16-5.797-3.288-2.101-7.578-2.101t-7.58 2.1-5.202 5.798q-1.925 3.696-1.925 8.36 0 4.74 1.925 8.437 1.914 3.707 5.203 5.852t7.579 2.145m55.704 8.58q-6.578 0-11.737-3.245-5.16-3.234-8.173-8.855-3.014-5.61-3.014-12.826t2.97-12.826q2.97-5.621 8.085-8.855 5.104-3.245 11.594-3.245 3.553 0 6.886 1.144t5.984 3.102 4.158 4.29 1.507 4.708l-2.74.176V12.293h9.406v67.562h-9.405V68.437h1.826q0 2.2-1.463 4.345t-3.883 3.97-5.566 2.916q-3.157 1.1-6.435 1.1m1.276-8.13q4.29 0 7.579-2.188t5.159-5.984q1.87-3.784 1.87-8.624t-1.87-8.624q-1.87-3.795-5.16-5.984t-7.578-2.19-7.58 2.19-5.158 5.984q-1.87 3.784-1.87 8.624t1.87 8.624q1.87 3.795 5.159 5.984t7.579 2.189m60.808 8.129q-7.403 0-13.101-3.146-5.71-3.157-8.954-8.635-3.234-5.478-3.234-12.595 0-5.665 1.826-10.318t5.06-8.085q3.245-3.421 7.766-5.291t9.812-1.87q4.653 0 8.668 1.782 4.026 1.77 6.985 4.884 2.97 3.102 4.565 7.348 1.606 4.246 1.507 9.262l-.088 4.015H1004.6l-2.101-7.48h33.143l-1.364 1.55v-2.188q-.275-3.014-2.013-5.39-1.727-2.376-4.378-3.74-2.651-1.375-5.753-1.375-4.928 0-8.305 1.87-3.377 1.88-5.115 5.478-1.738 3.608-1.738 8.91 0 5.016 2.1 8.712t5.94 5.709q3.829 2.013 8.856 2.013 3.553 0 6.61-1.188t6.623-4.29l4.752 6.666q-2.19 2.189-5.346 3.828-3.146 1.65-6.666 2.607-3.51.957-6.886.957m55.407-.913h-6.754l-20.273-47.938h10.13l14.609 35.882-1.727.825 15.609-36.707h9.68Zm47.663.913q-6.017 0-10.857-2.101t-8.041-6.204l6.39-5.478q2.74 3.19 5.985 4.609 3.245 1.408 7.348 1.408 1.639 0 3.058-.407t2.464-1.232q1.056-.825 1.595-1.958.55-1.144.55-2.52 0-2.375-1.727-3.827-.913-.638-2.882-1.42-1.958-.78-5.071-1.594-5.291-1.375-8.668-3.102-3.377-1.738-5.203-3.927-1.375-1.738-2.013-3.795t-.638-4.521q0-4.015 2.288-7.117 2.277-3.102 6.16-4.884t8.723-1.782q3.377 0 6.71.913t6.16 2.65q2.827 1.728 4.74 4.104l-5.378 5.94q-1.738-1.738-3.795-3.058-2.046-1.331-4.147-2.057t-3.84-.726q-1.913 0-3.464.363t-2.607 1.089q-1.045.737-1.595 1.826-.55 1.1-.55 2.464.088 1.188.594 2.244.506 1.045 1.419 1.782 1 .726 3.014 1.55 2.002.815 5.104 1.552 4.565 1.188 7.535 2.596 2.97 1.419 4.708 3.245 1.826 1.738 2.552 4.015.726 2.288.726 5.115 0 4.114-2.321 7.348-2.332 3.245-6.26 5.07t-8.766 1.827"/><g transform="matrix(1.1 0 0 1.1 122.568 118.73)"><filter id="a" width="140%" height="140%" x="-20%" y="-20%"><feGaussianBlur in="SourceAlpha"/><feOffset result="oBlur"/><feFlood flood-color="#000" flood-opacity="1"/><feComposite in2="oBlur" operator="in"/><feMerge><feMergeNode/><feMergeNode in="SourceGraphic"/></feMerge></filter><g filter="url(#a)"><rect width="208.823" height="33.9" x="570.775" y="-17.411" fill="none" rx="0" ry="0"/><path fill="#001f3f" d="M578.677 8.699q-2.25 0-3.9-1.03-1.65-1.04-2.56-2.81-.92-1.77-.92-3.9 0-2.16.92-3.91.91-1.76 2.56-2.79 1.65-1.04 3.9-1.04 2.67 0 4.54 1.38 1.88 1.38 2.54 3.57h-2.43q-.51-1.29-1.64-2.1-1.12-.81-2.71-.81-1.65 0-2.88.78t-1.89 2.07-.66 2.85q0 1.53.66 2.84.66 1.3 1.89 2.08t2.88.78q1.59 0 2.71-.81 1.13-.81 1.64-2.1h2.43q-.66 2.19-2.54 3.57-1.87 1.38-4.54 1.38m16.38 0q-2.28 0-3.96-1.03-1.68-1.04-2.58-2.81t-.9-3.9q0-2.16.9-3.91.9-1.76 2.58-2.79 1.68-1.04 3.96-1.04 2.31 0 3.97 1.04 1.67 1.03 2.57 2.79.9 1.75.9 3.91 0 2.13-.9 3.9t-2.57 2.81q-1.66 1.03-3.97 1.03m0-2.04q1.68 0 2.83-.78 1.16-.78 1.76-2.08.6-1.31.6-2.84 0-1.56-.6-2.85t-1.76-2.07q-1.15-.78-2.83-.78-1.65 0-2.82.78t-1.77 2.07-.6 2.85q0 1.53.6 2.84.6 1.3 1.77 2.08t2.82.78m12.65 1.8h-2.25v-15h2.25v2.28q.51-.9 1.62-1.71t2.94-.81q1.5 0 2.77.8 1.28.79 2 2.23.3-.51.94-1.23.65-.72 1.7-1.26t2.52-.54q1.44 0 2.7.75t2.05 2.15q.8 1.39.8 3.28v9.06h-2.25v-9q0-1.89-1.07-3.04-1.06-1.16-2.65-1.16-1.65 0-2.85 1.11t-1.2 3.12v8.97h-2.25v-9q0-1.89-1.07-3.04-1.06-1.16-2.65-1.16-1.65 0-2.85 1.11t-1.2 3.12Zm26.05 5.94h-2.25v-20.94h2.25v2.4q.84-1.23 2.17-1.93 1.34-.71 3.2-.71 2.19 0 3.83 1.04 1.63 1.03 2.53 2.79.9 1.75.9 3.91 0 2.13-.9 3.9t-2.53 2.81q-1.64 1.03-3.83 1.03-1.86 0-3.2-.73-1.33-.74-2.17-1.94Zm5.07-7.74q1.68 0 2.86-.78 1.19-.78 1.82-2.08.63-1.31.63-2.84 0-1.56-.63-2.85t-1.82-2.07q-1.18-.78-2.86-.78-1.65 0-2.82.78t-1.77 2.07-.6 2.85q0 1.53.6 2.84.6 1.3 1.77 2.08t2.82.78m23.49 1.8h-13.35v-1.23q0-1.47.81-2.68.81-1.22 2.07-2.27t2.7-2.02q1.44-.98 2.7-1.91t2.07-1.93q.81-1.01.81-2.15 0-1.74-1.16-2.73-1.15-.99-3.31-.99-1.98 0-3.23.89-1.24.88-1.48 2.56h-2.25q.18-1.71 1.12-2.98.95-1.28 2.45-1.97t3.33-.69q2.16 0 3.68.78 1.51.78 2.31 2.1.79 1.32.79 2.97 0 1.38-.75 2.58t-1.95 2.25-2.54 1.98q-1.33.93-2.56 1.82-1.23.88-2.04 1.74-.81.85-.9 1.72h10.68Zm16.5 0h-13.35v-1.23q0-1.47.81-2.68.81-1.22 2.07-2.27t2.7-2.02q1.44-.98 2.7-1.91t2.07-1.93q.81-1.01.81-2.15 0-1.74-1.16-2.73-1.15-.99-3.31-.99-1.98 0-3.23.89-1.24.88-1.48 2.56h-2.25q.18-1.71 1.12-2.98.95-1.28 2.45-1.97t3.33-.69q2.16 0 3.68.78 1.51.78 2.31 2.1.79 1.32.79 2.97 0 1.38-.75 2.58t-1.95 2.25-2.54 1.98q-1.33.93-2.56 1.82-1.23.88-2.04 1.74-.81.85-.9 1.72h10.68Zm9.26.24q-1.89 0-3.15-.72t-1.97-1.84q-.7-1.13-.97-2.3h2.52q.21.63.61 1.25.41.61 1.13 1.02.72.4 1.83.4 1.86 0 3.01-1.08 1.16-1.08 1.71-2.91.56-1.83.56-4.08-.72 1.23-2.12 2.03-1.39.79-3.07.79-1.86 0-3.4-.82-1.55-.83-2.45-2.28-.9-1.46-.9-3.35 0-1.86.93-3.31.93-1.46 2.49-2.3t3.42-.84q3.63 0 5.49 2.64t1.86 7.53q0 4.71-1.89 7.44t-5.64 2.73m.18-9.57q1.26 0 2.31-.52 1.05-.53 1.66-1.47.62-.95.62-2.18 0-1.32-.62-2.31-.61-.99-1.65-1.54-1.03-.56-2.32-.56-1.26 0-2.3.54-1.03.54-1.66 1.5t-.63 2.22q0 1.23.63 2.21.63.97 1.66 1.54 1.04.57 2.3.57m17.8 1.57h-7.5v-2.19h7.5Zm14.31 7.76h-2.25v-5.07h-9.48v-2.19l8.34-12.6h3.39v12.78h2.67v2.01h-2.67Zm-2.25-17.94-7.38 10.86h7.38Zm14.34 18.18q-3.51 0-5.23-2.59-1.73-2.6-1.73-7.58t1.73-7.57q1.72-2.6 5.23-2.6 2.04.03 3.39.89 1.35.85 2.13 2.29t1.11 3.24.33 3.75q0 4.98-1.72 7.58-1.73 2.59-5.24 2.59m0-2.19q1.53-.03 2.46-.75t1.43-1.89q.49-1.17.66-2.56.16-1.4.16-2.78 0-3.99-1.11-5.98-1.11-2-3.6-2-2.46 0-3.58 2-1.13 1.99-1.13 5.98t1.13 5.99q1.12 1.99 3.58 1.99m16.5 2.19q-3.39 0-5.25-1.65t-1.86-4.29q0-1.71 1.04-3.13 1.03-1.43 2.77-2.09-.66-.24-1.37-.76-.7-.53-1.18-1.38-.48-.86-.48-2.03 0-2.22 1.64-3.61 1.63-1.4 4.69-1.4t4.69 1.4q1.64 1.39 1.64 3.61 0 1.17-.48 2.03-.48.85-1.19 1.38-.7.52-1.36.76 1.77.66 2.79 2.09 1.02 1.42 1.02 3.13 0 2.64-1.86 4.29t-5.25 1.65m0-12.12q.93 0 1.88-.31.94-.32 1.57-1.01t.63-1.77q0-1.41-1.14-2.19t-2.94-.78-2.94.78-1.14 2.19q0 1.08.63 1.77t1.58 1.01q.94.31 1.87.31m0 9.96q2.22 0 3.54-1.03 1.32-1.04 1.32-2.78 0-1.29-.66-2.2-.66-.92-1.76-1.4-1.09-.48-2.44-.48-1.32 0-2.43.48t-1.77 1.4q-.66.91-.66 2.2 0 1.74 1.32 2.78 1.32 1.03 3.54 1.03"/></g></g><rect width="149.149" height="87.01" x="600.612" y="-43.966" fill="none" rx="0" ry="0" transform="matrix(1.1 0 0 1.1 484.303 52.224)"/><path d="M1156.037 79.14q-1.1 0-1.947-.935t-.847-2.123q0-1.265.935-2.288.924-1.012 2.2-1.012 1.177 0 2.112 1.012.935 1.023.935 2.21 0 1.354-.98 2.245-.967.89-2.408.89m42.009-.175q-1.86 0-3.938-.55t-3.18-1.232q-5.675-3.641-5.675-19.9v-6.94q0-3.388.088-6.061t.34-5.797q.254-3.311.76-5.38.506-2.078 1.694-4.707 1.023-2.453 2.497-3.806 1.485-1.353 3.86-2.288 2.113-.935 5.248-.935 1.276 0 1.947.594.682.594.682 1.529 0 .847-.55 1.518-.55.682-1.32.77h-3.982q-1.694 0-2.96 2.112-1.275 2.123-1.781 5.51-1.1 6.26-1.1 10.165v.418l-.165 8.129q-.176 3.64-.176 8.217 0 3.223.264 5.258.418 3.047 1.43 5.082 1.023 2.277 3.476 3.3 1.276.506 2.794.506.935 0 1.87-.682 1.1 0 1.815.473.726.462.726 1.397 0 3.3-4.664 3.3m34.815.429q-2.2 0-4.07-1.397-1.86-1.397-3.047-3.773-2.453-5.17-3.047-11.264-.77-5.764-.77-11.1 0-1.011.088-1.693v-1.518q0-.43-.088-.43V46.69l.088-5.93q.088-2.705.682-8.634.418-4.07 1.947-7.876.594-1.694 1.518-2.585.935-.891 2.123-.891 3.388 0 6.094 1.232 2.717 1.232 4.576 3.432 1.694 2.112 2.882 5.203t1.694 6.567q.506 3.553.506 7.535v.682q0 2.629.088 4.74l.088 4.83q0 24.398-11.352 24.398m-.341-3.564q1.529 0 2.794-1.221 1.276-1.232 1.947-3.355 1.606-4.312 1.947-9.317.429-4.312.429-7.447 0-3.817-.594-10-.506-6.522-.506-9.734v-1.53q-.176-3.211-2.167-5.587t-4.862-2.376q-2.882 0-3.817 3.31-.847 2.619-.847 6.777 0 1.606.088 2.706v2.288l-.176 3.894q-.165 1.782-.165 3.894 0 4.576.253 9.064.34 6.358 1.694 12.364 1.353 6.27 3.982 6.27m67.672 6.358q-2.618 0-2.618-5.258V66.094q0-4.235-.594-11.1-.682-7.71-.682-10.581l.176-5.258q.165-2.288.165-5.17-.341 1.11-2.794 11.693-2.464 10.252-5.082 18.975-2.541 8.382-4.158 8.382-1.606 0-2.574-.968-.98-.98-.98-2.673 0-3.73-3.002-15.84-3.014-12.111-5.467-19.822l-.506 9.57q-.682 12.122-.935 20.163-.165 7.788-.165 10.67 0 .682.088 1.276v1.188q0 1.43-.594 2.156-.594.715-2.211.715-.847 0-1.606-.627-.76-.638-.76-1.397 0-8.646 1.266-25.927 1.276-17.27 1.276-25.916-.506-.76-.506-1.606 0-1.023.968-1.573.979-.55 2.332-.55 1.1 0 4.07 7.964 2.959 7.964 5.918 18.04 2.97 10.087 3.817 14.575.682-2.288 1.1-4.235l.506-2.035q2.717-11.858 5.423-21.428 1.606-5.852 3.135-9.152 1.529-3.553 2.794-3.553 1.188 0 2.156.638.979.627.979 1.65 0 6.094.506 18.293.594 11.352.594 17.61l-.088 4.5-.165 4.488q0 1.012.253 3.047l.253 2.959q.088.77.132 1.188.044.429.044.506.418 1.1.418 1.617 0 1.44-.847 2.54t-2.035 1.1"/></g><path fill="transparent" stroke="transparent" d="M717.5 0h565v137h-565z"/></g></svg>